<?xml version="1.0" encoding="UTF-8" standalone="no"?>
<!DOCTYPE svg PUBLIC "-//W3C//DTD SVG 1.1//EN"
 "http://www.w3.org/Graphics/SVG/1.1/DTD/svg11.dtd">
<!-- Generated by graphviz version 15.0.0 (0)
 -->
<!-- Title: Arch Pages: 1 -->
<svg width="884pt" height="534pt"
 viewBox="0.00 0.00 884.00 534.00" xmlns="http://www.w3.org/2000/svg" xmlns:xlink="http://www.w3.org/1999/xlink">
<g id="graph0" class="graph" transform="scale(1 1) rotate(0) translate(21.6 512)">
<title>Arch</title>
<polygon fill="white" stroke="none" points="-21.6,21.6 -21.6,-512 862.6,-512 862.6,21.6 -21.6,21.6"/>
<g id="clust1" class="cluster">
<title>cluster_client</title>
<path fill="#f7fbff" stroke="#2e75b6" d="M141,-392C141,-392 454,-392 454,-392 460,-392 466,-398 466,-404 466,-404 466,-470.4 466,-470.4 466,-476.4 460,-482.4 454,-482.4 454,-482.4 141,-482.4 141,-482.4 135,-482.4 129,-476.4 129,-470.4 129,-470.4 129,-404 129,-404 129,-398 135,-392 141,-392"/>
<text xml:space="preserve" text-anchor="middle" x="297.5" y="-467.6" font-family="Arial" font-size="12.00" fill="#1f4e79">Mijoz qatlami / Client layer</text>
</g>
<g id="clust2" class="cluster">
<title>cluster_app</title>
<path fill="#f4f8fd" stroke="#2e75b6" d="M169,-110C169,-110 527,-110 527,-110 533,-110 539,-116 539,-122 539,-122 539,-274.4 539,-274.4 539,-280.4 533,-286.4 527,-286.4 527,-286.4 169,-286.4 169,-286.4 163,-286.4 157,-280.4 157,-274.4 157,-274.4 157,-122 157,-122 157,-116 163,-110 169,-110"/>
<text xml:space="preserve" text-anchor="middle" x="348" y="-271.6" font-family="Arial" font-size="12.00" fill="#1f4e79">Ilova qatlami / Application layer (REST API, JWT)</text>
</g>
<g id="clust3" class="cluster">
<title>cluster_data</title>
<path fill="#f1f8f1" stroke="#2e7d32" d="M20,-8C20,-8 388,-8 388,-8 394,-8 400,-14 400,-20 400,-20 400,-86.4 400,-86.4 400,-92.4 394,-98.4 388,-98.4 388,-98.4 20,-98.4 20,-98.4 14,-98.4 8,-92.4 8,-86.4 8,-86.4 8,-20 8,-20 8,-14 14,-8 20,-8"/>
<text xml:space="preserve" text-anchor="middle" x="204" y="-83.6" font-family="Arial" font-size="12.00" fill="#2e7d32">Ma&#39;lumotlar qatlami / Data layer</text>
</g>
<g id="clust4" class="cluster">
<title>cluster_ext</title>
<path fill="#fcf3ec" stroke="#b45309" d="M420,-12C420,-12 821,-12 821,-12 827,-12 833,-18 833,-24 833,-24 833,-82.4 833,-82.4 833,-88.4 827,-94.4 821,-94.4 821,-94.4 420,-94.4 420,-94.4 414,-94.4 408,-88.4 408,-82.4 408,-82.4 408,-24 408,-24 408,-18 414,-12 420,-12"/>
<text xml:space="preserve" text-anchor="middle" x="620.5" y="-79.6" font-family="Arial" font-size="12.00" fill="#b45309">Tashqi tizimlar / External</text>
</g>
<!-- mobile -->
<g id="node1" class="node">
<title>mobile</title>
<path fill="#fce8d5" stroke="#b45309" stroke-width="1.3" d="M205.29,-448C205.29,-448 152.71,-448 152.71,-448 146.71,-448 140.71,-442 140.71,-436 140.71,-436 140.71,-416 140.71,-416 140.71,-410 146.71,-404 152.71,-404 152.71,-404 205.29,-404 205.29,-404 211.29,-404 217.29,-410 217.29,-416 217.29,-416 217.29,-436 217.29,-436 217.29,-442 211.29,-448 205.29,-448"/>
<text xml:space="preserve" text-anchor="middle" x="179" y="-435" font-family="Arial" font-size="10.00">Mobil ilova</text>
<text xml:space="preserve" text-anchor="middle" x="179" y="-423" font-family="Arial" font-size="10.00">(Android/iOS)</text>
<text xml:space="preserve" text-anchor="middle" x="179" y="-411" font-family="Arial" font-size="10.00">QR skaner</text>
</g>
<!-- gw -->
<g id="node4" class="node">
<title>gw</title>
<path fill="#fff4d6" stroke="#b7950b" stroke-width="1.3" d="M440,-346C440,-346 140,-346 140,-346 134,-346 128,-340 128,-334 128,-334 128,-322 128,-322 128,-316 134,-310 140,-310 140,-310 440,-310 440,-310 446,-310 452,-316 452,-322 452,-322 452,-334 452,-334 452,-340 446,-346 440,-346"/>
<text xml:space="preserve" text-anchor="middle" x="290" y="-331" font-family="Arial" font-size="10.00">API Gateway / Reverse Proxy</text>
<text xml:space="preserve" text-anchor="middle" x="290" y="-319" font-family="Arial" font-size="10.00">TLS, rate&#45;limit, routing</text>
</g>
<!-- mobile&#45;&gt;gw -->
<g id="edge1" class="edge">
<title>mobile&#45;&gt;gw</title>
<path fill="none" stroke="#5b7fa6" stroke-width="1.1" d="M203.91,-403.46C220.78,-388.86 243.14,-369.52 260.85,-354.21"/>
<polygon fill="#5b7fa6" stroke="#5b7fa6" stroke-width="1.1" points="263.09,-356.9 268.37,-347.71 258.51,-351.6 263.09,-356.9"/>
</g>
<!-- kiosk -->
<g id="node2" class="node">
<title>kiosk</title>
<path fill="#fce8d5" stroke="#b45309" stroke-width="1.3" d="M321.84,-444C321.84,-444 258.16,-444 258.16,-444 252.16,-444 246.16,-438 246.16,-432 246.16,-432 246.16,-420 246.16,-420 246.16,-414 252.16,-408 258.16,-408 258.16,-408 321.84,-408 321.84,-408 327.84,-408 333.84,-414 333.84,-420 333.84,-420 333.84,-432 333.84,-432 333.84,-438 327.84,-444 321.84,-444"/>
<text xml:space="preserve" text-anchor="middle" x="290" y="-429" font-family="Arial" font-size="10.00">Terminal / Kiosk</text>
<text xml:space="preserve" text-anchor="middle" x="290" y="-417" font-family="Arial" font-size="10.00">QR skaner</text>
</g>
<!-- kiosk&#45;&gt;gw -->
<g id="edge2" class="edge">
<title>kiosk&#45;&gt;gw</title>
<path fill="none" stroke="#5b7fa6" stroke-width="1.1" d="M290,-407.39C290,-393.59 290,-374.09 290,-357.99"/>
<polygon fill="#5b7fa6" stroke="#5b7fa6" stroke-width="1.1" points="293.5,-358.16 290,-348.16 286.5,-358.16 293.5,-358.16"/>
</g>
<!-- web -->
<g id="node3" class="node">
<title>web</title>
<path fill="#fce8d5" stroke="#b45309" stroke-width="1.3" d="M441.52,-444C441.52,-444 374.48,-444 374.48,-444 368.48,-444 362.48,-438 362.48,-432 362.48,-432 362.48,-420 362.48,-420 362.48,-414 368.48,-408 374.48,-408 374.48,-408 441.52,-408 441.52,-408 447.52,-408 453.52,-414 453.52,-420 453.52,-420 453.52,-432 453.52,-432 453.52,-438 447.52,-444 441.52,-444"/>
<text xml:space="preserve" text-anchor="middle" x="408" y="-429" font-family="Arial" font-size="10.00">Admin veb&#45;panel</text>
<text xml:space="preserve" text-anchor="middle" x="408" y="-417" font-family="Arial" font-size="10.00">(SPA)</text>
</g>
<!-- web&#45;&gt;gw -->
<g id="edge3" class="edge">
<title>web&#45;&gt;gw</title>
<path fill="none" stroke="#5b7fa6" stroke-width="1.1" d="M386.36,-407.39C367.89,-392.37 341.14,-370.6 320.5,-353.82"/>
<polygon fill="#5b7fa6" stroke="#5b7fa6" stroke-width="1.1" points="322.76,-351.14 312.8,-347.55 318.35,-356.57 322.76,-351.14"/>
</g>
<!-- auth -->
<g id="node5" class="node">
<title>auth</title>
<path fill="#e8f0fa" stroke="#2e75b6" stroke-width="1.3" d="M316.29,-252C316.29,-252 263.71,-252 263.71,-252 257.71,-252 251.71,-246 251.71,-240 251.71,-240 251.71,-228 251.71,-228 251.71,-222 257.71,-216 263.71,-216 263.71,-216 316.29,-216 316.29,-216 322.29,-216 328.29,-222 328.29,-228 328.29,-228 328.29,-240 328.29,-240 328.29,-246 322.29,-252 316.29,-252"/>
<text xml:space="preserve" text-anchor="middle" x="290" y="-237" font-family="Arial" font-size="10.00">Auth &amp; RBAC</text>
<text xml:space="preserve" text-anchor="middle" x="290" y="-225" font-family="Arial" font-size="10.00">xizmati</text>
</g>
<!-- gw&#45;&gt;auth -->
<g id="edge4" class="edge">
<title>gw&#45;&gt;auth</title>
<path fill="none" stroke="#5b7fa6" stroke-width="1.1" d="M290,-309.7C290,-306.1 290,-302.12 290,-297.91"/>
<polygon fill="#5b7fa6" stroke="#5b7fa6" stroke-width="1.1" points="293.5,-298.06 290,-288.06 286.5,-298.06 293.5,-298.06"/>
</g>
<!-- pg -->
<g id="node11" class="node">
<title>pg</title>
<path fill="#e6f2e6" stroke="#2e7d32" stroke-width="1.3" d="M241.24,-60C241.24,-62.21 225.44,-64 206,-64 186.56,-64 170.76,-62.21 170.76,-60 170.76,-60 170.76,-24 170.76,-24 170.76,-21.79 186.56,-20 206,-20 225.44,-20 241.24,-21.79 241.24,-24 241.24,-24 241.24,-60 241.24,-60"/>
<path fill="none" stroke="#2e7d32" stroke-width="1.3" d="M241.24,-60C241.24,-57.79 225.44,-56 206,-56 186.56,-56 170.76,-57.79 170.76,-60"/>
<text xml:space="preserve" text-anchor="middle" x="206" y="-45" font-family="Arial" font-size="10.00">PostgreSQL</text>
<text xml:space="preserve" text-anchor="middle" x="206" y="-33" font-family="Arial" font-size="10.00">(asosiy DB)</text>
</g>
<!-- auth&#45;&gt;pg -->
<g id="edge5" class="edge">
<title>auth&#45;&gt;pg</title>
<path fill="none" stroke="#5b7fa6" stroke-width="1.1" d="M276.4,-215.35C265.6,-200.66 250.74,-178.86 241,-158 228.53,-131.31 219.17,-99.09 213.28,-75.55"/>
<polygon fill="#5b7fa6" stroke="#5b7fa6" stroke-width="1.1" points="216.74,-74.95 210.99,-66.05 209.93,-76.6 216.74,-74.95"/>
</g>
<!-- redis -->
<g id="node12" class="node">
<title>redis</title>
<path fill="#e6f2e6" stroke="#2e7d32" stroke-width="1.3" d="M388.13,-60C388.13,-62.21 361.63,-64 329,-64 296.37,-64 269.87,-62.21 269.87,-60 269.87,-60 269.87,-24 269.87,-24 269.87,-21.79 296.37,-20 329,-20 361.63,-20 388.13,-21.79 388.13,-24 388.13,-24 388.13,-60 388.13,-60"/>
<path fill="none" stroke="#2e7d32" stroke-width="1.3" d="M388.13,-60C388.13,-57.79 361.63,-56 329,-56 296.37,-56 269.87,-57.79 269.87,-60"/>
<text xml:space="preserve" text-anchor="middle" x="329" y="-45" font-family="Arial" font-size="10.00">Redis</text>
<text xml:space="preserve" text-anchor="middle" x="329" y="-33" font-family="Arial" font-size="10.00">(kesh, sessiya, navbat)</text>
</g>
<!-- auth&#45;&gt;redis -->
<g id="edge10" class="edge">
<title>auth&#45;&gt;redis</title>
<path fill="none" stroke="#5b7fa6" stroke-width="1.1" d="M293.6,-215.47C300.11,-183.76 313.93,-116.44 322.24,-75.92"/>
<polygon fill="#5b7fa6" stroke="#5b7fa6" stroke-width="1.1" points="325.67,-76.65 324.25,-66.15 318.81,-75.24 325.67,-76.65"/>
</g>
<!-- att -->
<g id="node6" class="node">
<title>att</title>
<path fill="#e8f0fa" stroke="#2e75b6" stroke-width="1.3" d="M410.01,-158C410.01,-158 377.99,-158 377.99,-158 371.99,-158 365.99,-152 365.99,-146 365.99,-146 365.99,-134 365.99,-134 365.99,-128 371.99,-122 377.99,-122 377.99,-122 410.01,-122 410.01,-122 416.01,-122 422.01,-128 422.01,-134 422.01,-134 422.01,-146 422.01,-146 422.01,-152 416.01,-158 410.01,-158"/>
<text xml:space="preserve" text-anchor="middle" x="394" y="-143" font-family="Arial" font-size="10.00">Davomat</text>
<text xml:space="preserve" text-anchor="middle" x="394" y="-131" font-family="Arial" font-size="10.00">xizmati</text>
</g>
<!-- att&#45;&gt;pg -->
<g id="edge6" class="edge">
<title>att&#45;&gt;pg</title>
<path fill="none" stroke="#5b7fa6" stroke-width="1.1" d="M365.46,-131.57C327.6,-121.58 264.42,-104.38 255,-98.4 244.75,-91.9 235.4,-82.65 227.67,-73.56"/>
<polygon fill="#5b7fa6" stroke="#5b7fa6" stroke-width="1.1" points="230.54,-71.55 221.55,-65.94 225.08,-75.93 230.54,-71.55"/>
</g>
<!-- att&#45;&gt;redis -->
<g id="edge9" class="edge">
<title>att&#45;&gt;redis</title>
<path fill="none" stroke="#5b7fa6" stroke-width="1.1" d="M382.08,-121.39C373.09,-108.12 360.55,-89.59 349.91,-73.88"/>
<polygon fill="#5b7fa6" stroke="#5b7fa6" stroke-width="1.1" points="353.02,-72.23 344.51,-65.91 347.22,-76.15 353.02,-72.23"/>
</g>
<!-- pay -->
<g id="node7" class="node">
<title>pay</title>
<path fill="#e8f0fa" stroke="#2e75b6" stroke-width="1.3" d="M515,-252C515,-252 485,-252 485,-252 479,-252 473,-246 473,-240 473,-240 473,-228 473,-228 473,-222 479,-216 485,-216 485,-216 515,-216 515,-216 521,-216 527,-222 527,-228 527,-228 527,-240 527,-240 527,-246 521,-252 515,-252"/>
<text xml:space="preserve" text-anchor="middle" x="500" y="-237" font-family="Arial" font-size="10.00">Ish haqi</text>
<text xml:space="preserve" text-anchor="middle" x="500" y="-225" font-family="Arial" font-size="10.00">xizmati</text>
</g>
<!-- pay&#45;&gt;pg -->
<g id="edge7" class="edge">
<title>pay&#45;&gt;pg</title>
<path fill="none" stroke="#5b7fa6" stroke-width="1.1" d="M472.43,-220.03C442.23,-205.62 392.55,-181.3 351,-158 307.19,-133.44 293.37,-130.8 255,-98.4 246.19,-90.96 237.53,-81.92 230,-73.33"/>
<polygon fill="#5b7fa6" stroke="#5b7fa6" stroke-width="1.1" points="232.82,-71.24 223.68,-65.88 227.48,-75.77 232.82,-71.24"/>
</g>
<!-- acc1c -->
<g id="node14" class="node">
<title>acc1c</title>
<path fill="#fbeee6" stroke="#b45309" stroke-width="1.3" d="M809.07,-60C809.07,-60 740.93,-60 740.93,-60 734.93,-60 728.93,-54 728.93,-48 728.93,-48 728.93,-36 728.93,-36 728.93,-30 734.93,-24 740.93,-24 740.93,-24 809.07,-24 809.07,-24 815.07,-24 821.07,-30 821.07,-36 821.07,-36 821.07,-48 821.07,-48 821.07,-54 815.07,-60 809.07,-60"/>
<text xml:space="preserve" text-anchor="middle" x="775" y="-45" font-family="Arial" font-size="10.00">Buxgalteriya / 1C</text>
<text xml:space="preserve" text-anchor="middle" x="775" y="-33" font-family="Arial" font-size="10.00">(eksport)</text>
</g>
<!-- pay&#45;&gt;acc1c -->
<g id="edge13" class="edge">
<title>pay&#45;&gt;acc1c</title>
<path fill="none" stroke="#5b7fa6" stroke-width="1.1" d="M527.54,-217.96C569.51,-194.56 651.31,-147.06 715,-98.4 726.88,-89.32 739.16,-78.32 749.49,-68.52"/>
<polygon fill="#5b7fa6" stroke="#5b7fa6" stroke-width="1.1" points="751.69,-71.26 756.45,-61.8 746.83,-66.22 751.69,-71.26"/>
</g>
<!-- rep -->
<g id="node8" class="node">
<title>rep</title>
<path fill="#e8f0fa" stroke="#2e75b6" stroke-width="1.3" d="M211,-252C211,-252 181,-252 181,-252 175,-252 169,-246 169,-240 169,-240 169,-228 169,-228 169,-222 175,-216 181,-216 181,-216 211,-216 211,-216 217,-216 223,-222 223,-228 223,-228 223,-240 223,-240 223,-246 217,-252 211,-252"/>
<text xml:space="preserve" text-anchor="middle" x="196" y="-237" font-family="Arial" font-size="10.00">Hisobot</text>
<text xml:space="preserve" text-anchor="middle" x="196" y="-225" font-family="Arial" font-size="10.00">xizmati</text>
</g>
<!-- rep&#45;&gt;pg -->
<g id="edge8" class="edge">
<title>rep&#45;&gt;pg</title>
<path fill="none" stroke="#5b7fa6" stroke-width="1.1" d="M190.86,-215.39C184.57,-191.43 175.53,-147.27 182,-110 184.02,-98.34 187.89,-86.04 191.94,-75.19"/>
<polygon fill="#5b7fa6" stroke="#5b7fa6" stroke-width="1.1" points="195.13,-76.65 195.54,-66.06 188.62,-74.08 195.13,-76.65"/>
</g>
<!-- obj -->
<g id="node13" class="node">
<title>obj</title>
<path fill="#e6f2e6" stroke="#2e7d32" stroke-width="1.3" d="M142.08,-60C142.08,-62.21 114.7,-64 81,-64 47.3,-64 19.92,-62.21 19.92,-60 19.92,-60 19.92,-24 19.92,-24 19.92,-21.79 47.3,-20 81,-20 114.7,-20 142.08,-21.79 142.08,-24 142.08,-24 142.08,-60 142.08,-60"/>
<path fill="none" stroke="#2e7d32" stroke-width="1.3" d="M142.08,-60C142.08,-57.79 114.7,-56 81,-56 47.3,-56 19.92,-57.79 19.92,-60"/>
<text xml:space="preserve" text-anchor="middle" x="81" y="-45" font-family="Arial" font-size="10.00">Obyekt&#45;saqlash</text>
<text xml:space="preserve" text-anchor="middle" x="81" y="-33" font-family="Arial" font-size="10.00">(hisobot/eksport fayllari)</text>
</g>
<!-- rep&#45;&gt;obj -->
<g id="edge12" class="edge">
<title>rep&#45;&gt;obj</title>
<path fill="none" stroke="#5b7fa6" stroke-width="1.1" d="M185.39,-215.47C165.95,-183.35 124.39,-114.69 99.98,-74.36"/>
<polygon fill="#5b7fa6" stroke="#5b7fa6" stroke-width="1.1" points="103.06,-72.69 94.89,-65.94 97.07,-76.31 103.06,-72.69"/>
</g>
<!-- notif -->
<g id="node9" class="node">
<title>notif</title>
<path fill="#e8f0fa" stroke="#2e75b6" stroke-width="1.3" d="M515.01,-158C515.01,-158 462.99,-158 462.99,-158 456.99,-158 450.99,-152 450.99,-146 450.99,-146 450.99,-134 450.99,-134 450.99,-128 456.99,-122 462.99,-122 462.99,-122 515.01,-122 515.01,-122 521.01,-122 527.01,-128 527.01,-134 527.01,-134 527.01,-146 527.01,-146 527.01,-152 521.01,-158 515.01,-158"/>
<text xml:space="preserve" text-anchor="middle" x="489" y="-143" font-family="Arial" font-size="10.00">Bildirishnoma</text>
<text xml:space="preserve" text-anchor="middle" x="489" y="-131" font-family="Arial" font-size="10.00">xizmati</text>
</g>
<!-- notif&#45;&gt;redis -->
<g id="edge11" class="edge">
<title>notif&#45;&gt;redis</title>
<path fill="none" stroke="#5b7fa6" stroke-width="1.1" d="M459.81,-121.4C452.51,-117.37 444.58,-113.3 437,-110 421.58,-103.3 415.88,-106.22 401,-98.4 387.23,-91.16 373.38,-81.28 361.56,-71.86"/>
<polygon fill="#5b7fa6" stroke="#5b7fa6" stroke-width="1.1" points="363.79,-69.17 353.84,-65.53 359.35,-74.58 363.79,-69.17"/>
</g>
<!-- sms -->
<g id="node15" class="node">
<title>sms</title>
<path fill="#fbeee6" stroke="#b45309" stroke-width="1.3" d="M583.17,-60C583.17,-60 532.83,-60 532.83,-60 526.83,-60 520.83,-54 520.83,-48 520.83,-48 520.83,-36 520.83,-36 520.83,-30 526.83,-24 532.83,-24 532.83,-24 583.17,-24 583.17,-24 589.17,-24 595.17,-30 595.17,-36 595.17,-36 595.17,-48 595.17,-48 595.17,-54 589.17,-60 583.17,-60"/>
<text xml:space="preserve" text-anchor="middle" x="558" y="-45" font-family="Arial" font-size="10.00">SMS / E&#45;mail</text>
<text xml:space="preserve" text-anchor="middle" x="558" y="-33" font-family="Arial" font-size="10.00">shlyuzlari</text>
</g>
<!-- notif&#45;&gt;sms -->
<g id="edge14" class="edge">
<title>notif&#45;&gt;sms</title>
<path fill="none" stroke="#5b7fa6" stroke-width="1.1" d="M501.66,-121.39C512.06,-106.91 526.98,-86.16 538.84,-69.65"/>
<polygon fill="#5b7fa6" stroke="#5b7fa6" stroke-width="1.1" points="541.46,-72.01 544.45,-61.85 535.77,-67.93 541.46,-72.01"/>
</g>
<!-- tg -->
<g id="node16" class="node">
<title>tg</title>
<path fill="#fbeee6" stroke="#b45309" stroke-width="1.3" d="M688.01,-60C688.01,-60 635.99,-60 635.99,-60 629.99,-60 623.99,-54 623.99,-48 623.99,-48 623.99,-36 623.99,-36 623.99,-30 629.99,-24 635.99,-24 635.99,-24 688.01,-24 688.01,-24 694.01,-24 700.01,-30 700.01,-36 700.01,-36 700.01,-48 700.01,-48 700.01,-54 694.01,-60 688.01,-60"/>
<text xml:space="preserve" text-anchor="middle" x="662" y="-39" font-family="Arial" font-size="10.00">Telegram Bot</text>
</g>
<!-- notif&#45;&gt;tg -->
<g id="edge15" class="edge">
<title>notif&#45;&gt;tg</title>
<path fill="none" stroke="#5b7fa6" stroke-width="1.1" d="M527.39,-131.26C552.31,-125.04 584.73,-114.61 610,-98.4 622.11,-90.63 633.34,-79.43 642.24,-69.13"/>
<polygon fill="#5b7fa6" stroke="#5b7fa6" stroke-width="1.1" points="644.7,-71.64 648.37,-61.7 639.3,-67.19 644.7,-71.64"/>
</g>
<!-- push -->
<g id="node17" class="node">
<title>push</title>
<path fill="#fbeee6" stroke="#b45309" stroke-width="1.3" d="M479.78,-60C479.78,-60 432.22,-60 432.22,-60 426.22,-60 420.22,-54 420.22,-48 420.22,-48 420.22,-36 420.22,-36 420.22,-30 426.22,-24 432.22,-24 432.22,-24 479.78,-24 479.78,-24 485.78,-24 491.78,-30 491.78,-36 491.78,-36 491.78,-48 491.78,-48 491.78,-54 485.78,-60 479.78,-60"/>
<text xml:space="preserve" text-anchor="middle" x="456" y="-45" font-family="Arial" font-size="10.00">FCM / APNs</text>
<text xml:space="preserve" text-anchor="middle" x="456" y="-33" font-family="Arial" font-size="10.00">(push)</text>
</g>
<!-- notif&#45;&gt;push -->
<g id="edge16" class="edge">
<title>notif&#45;&gt;push</title>
<path fill="none" stroke="#5b7fa6" stroke-width="1.1" d="M482.95,-121.39C478.16,-107.45 471.37,-87.71 465.8,-71.52"/>
<polygon fill="#5b7fa6" stroke="#5b7fa6" stroke-width="1.1" points="469.12,-70.39 462.56,-62.07 462.5,-72.67 469.12,-70.39"/>
</g>
<!-- sched -->
<g id="node10" class="node">
<title>sched</title>
<path fill="#e8f0fa" stroke="#2e75b6" stroke-width="1.3" d="M432.29,-252C432.29,-252 369.71,-252 369.71,-252 363.71,-252 357.71,-246 357.71,-240 357.71,-240 357.71,-228 357.71,-228 357.71,-222 363.71,-216 369.71,-216 369.71,-216 432.29,-216 432.29,-216 438.29,-216 444.29,-222 444.29,-228 444.29,-228 444.29,-240 444.29,-240 444.29,-246 438.29,-252 432.29,-252"/>
<text xml:space="preserve" text-anchor="middle" x="401" y="-237" font-family="Arial" font-size="10.00">Rejalashtiruvchi</text>
<text xml:space="preserve" text-anchor="middle" x="401" y="-225" font-family="Arial" font-size="10.00">(jobs/cron)</text>
</g>
<!-- sched&#45;&gt;att -->
<g id="edge17" class="edge">
<title>sched&#45;&gt;att</title>
<path fill="none" stroke="#5b7fa6" stroke-width="1.1" d="M399.68,-215.7C398.7,-202.8 397.34,-184.89 396.19,-169.84"/>
<polygon fill="#5b7fa6" stroke="#5b7fa6" stroke-width="1.1" points="399.71,-169.91 395.46,-160.2 392.73,-170.44 399.71,-169.91"/>
</g>
<!-- sched&#45;&gt;notif -->
<g id="edge18" class="edge">
<title>sched&#45;&gt;notif</title>
<path fill="none" stroke="#5b7fa6" stroke-width="1.1" d="M417.55,-215.7C430.74,-201.91 449.41,-182.39 464.36,-166.76"/>
<polygon fill="#5b7fa6" stroke="#5b7fa6" stroke-width="1.1" points="466.69,-169.39 471.07,-159.74 461.63,-164.55 466.69,-169.39"/>
</g>
</g>
</svg>
