<?xml version="1.0" encoding="UTF-8"?>
<svg xmlns="http://www.w3.org/2000/svg" width="1090" height="810" viewBox="0 0 1090 810" font-family="Arial, Helvetica, sans-serif">
<rect width="1090" height="810" fill="white"/>
<text x="545" y="34" text-anchor="middle" font-size="17" font-weight="bold" fill="#1F4E79">Sequence 1 — QR check-in / check-out (FR-AT)</text>
<defs>
  <marker id="arrow" markerWidth="10" markerHeight="10" refX="8" refY="3" orient="auto" markerUnits="userSpaceOnUse">
    <path d="M0,0 L9,3 L0,6 Z" fill="#34557a"/>
  </marker>
  <marker id="open" markerWidth="12" markerHeight="10" refX="9" refY="3" orient="auto" markerUnits="userSpaceOnUse">
    <path d="M0,0 L9,3 L0,6" fill="none" stroke="#34557a" stroke-width="1.2"/>
  </marker>
</defs>
<rect x="35" y="70" width="150" height="46" rx="6" fill="#FCE8D5" stroke="#B45309" stroke-width="1.4"/><text x="110" y="89" text-anchor="middle" font-size="11" font-weight="bold" fill="#333">Xodim</text><text x="110" y="103" text-anchor="middle" font-size="11" font-weight="normal" fill="#333">Employee</text><line x1="110" y1="116" x2="110" y2="750" stroke="#9bb3cc" stroke-width="1.2" stroke-dasharray="4,4"/><rect x="250" y="70" width="150" height="46" rx="6" fill="#FCE8D5" stroke="#B45309" stroke-width="1.4"/><text x="325" y="89" text-anchor="middle" font-size="11" font-weight="bold" fill="#333">Mobil ilova</text><text x="325" y="103" text-anchor="middle" font-size="11" font-weight="normal" fill="#333">Mobile app</text><line x1="325" y1="116" x2="325" y2="750" stroke="#9bb3cc" stroke-width="1.2" stroke-dasharray="4,4"/><rect x="465" y="70" width="150" height="46" rx="6" fill="#FCE8D5" stroke="#B45309" stroke-width="1.4"/><text x="540" y="89" text-anchor="middle" font-size="11" font-weight="bold" fill="#333">API Gateway</text><line x1="540" y1="116" x2="540" y2="750" stroke="#9bb3cc" stroke-width="1.2" stroke-dasharray="4,4"/><rect x="680" y="70" width="150" height="46" rx="6" fill="#FCE8D5" stroke="#B45309" stroke-width="1.4"/><text x="755" y="89" text-anchor="middle" font-size="11" font-weight="bold" fill="#333">Davomat xizmati</text><text x="755" y="103" text-anchor="middle" font-size="11" font-weight="normal" fill="#333">Attendance svc</text><line x1="755" y1="116" x2="755" y2="750" stroke="#9bb3cc" stroke-width="1.2" stroke-dasharray="4,4"/><rect x="895" y="70" width="150" height="46" rx="6" fill="#FCE8D5" stroke="#B45309" stroke-width="1.4"/><text x="970" y="89" text-anchor="middle" font-size="11" font-weight="bold" fill="#333">PostgreSQL</text><line x1="970" y1="116" x2="970" y2="750" stroke="#9bb3cc" stroke-width="1.2" stroke-dasharray="4,4"/><line x1="110" y1="144" x2="319" y2="144" stroke="#34557a" stroke-width="1.3"  marker-end="url(#arrow)"/><text x="217.5" y="137" text-anchor="middle" font-size="11" fill="#222">QR-kodni skanerlash</text><line x1="325" y1="196" x2="534" y2="196" stroke="#34557a" stroke-width="1.3"  marker-end="url(#arrow)"/><text x="432.5" y="189" text-anchor="middle" font-size="11" fill="#222">POST /attendance/scan {qr, geo, device}</text><line x1="540" y1="248" x2="749" y2="248" stroke="#34557a" stroke-width="1.3"  marker-end="url(#arrow)"/><text x="647.5" y="241" text-anchor="middle" font-size="11" fill="#222">scan(payload), JWT tekshir</text><path d="M755,292 h45 v18 h-45" fill="none" stroke="#34557a" stroke-width="1.3" marker-end="url(#arrow)"/><text x="807" y="288" font-size="11" fill="#222">QR/TOTP + geofence validatsiya</text><line x1="755" y1="352" x2="964" y2="352" stroke="#34557a" stroke-width="1.3"  marker-end="url(#arrow)"/><text x="862.5" y="345" text-anchor="middle" font-size="11" fill="#222">INSERT attendance_event</text><line x1="970" y1="404" x2="761" y2="404" stroke="#34557a" stroke-width="1.3" stroke-dasharray="6,4" marker-end="url(#open)"/><text x="862.5" y="397" text-anchor="middle" font-size="11" fill="#222">event_id</text><path d="M755,448 h45 v18 h-45" fill="none" stroke="#34557a" stroke-width="1.3" marker-end="url(#arrow)"/><text x="807" y="444" font-size="11" fill="#222">in/out aniqlash, vaqt hisobi</text><line x1="755" y1="508" x2="964" y2="508" stroke="#34557a" stroke-width="1.3"  marker-end="url(#arrow)"/><text x="862.5" y="501" text-anchor="middle" font-size="11" fill="#222">UPSERT attendance (check_in/out)</text><line x1="970" y1="560" x2="761" y2="560" stroke="#34557a" stroke-width="1.3" stroke-dasharray="6,4" marker-end="url(#open)"/><text x="862.5" y="553" text-anchor="middle" font-size="11" fill="#222">ok</text><line x1="755" y1="612" x2="546" y2="612" stroke="#34557a" stroke-width="1.3" stroke-dasharray="6,4" marker-end="url(#open)"/><text x="647.5" y="605" text-anchor="middle" font-size="11" fill="#222">201 {status, time}</text><line x1="540" y1="664" x2="331" y2="664" stroke="#34557a" stroke-width="1.3" stroke-dasharray="6,4" marker-end="url(#open)"/><text x="432.5" y="657" text-anchor="middle" font-size="11" fill="#222">201 Created</text><line x1="325" y1="716" x2="116" y2="716" stroke="#34557a" stroke-width="1.3" stroke-dasharray="6,4" marker-end="url(#open)"/><text x="217.5" y="709" text-anchor="middle" font-size="11" fill="#222">Tasdiq: "Keldingiz 09:02"</text></svg>