<?xml version="1.0" encoding="UTF-8" standalone="no"?>
<!DOCTYPE svg PUBLIC "-//W3C//DTD SVG 1.1//EN"
 "http://www.w3.org/Graphics/SVG/1.1/DTD/svg11.dtd">
<!-- Generated by graphviz version 15.0.0 (0)
 -->
<!-- Title: UseCase Pages: 1 -->
<svg width="613pt" height="908pt"
 viewBox="0.00 0.00 613.00 908.00" xmlns="http://www.w3.org/2000/svg" xmlns:xlink="http://www.w3.org/1999/xlink">
<g id="graph0" class="graph" transform="scale(1 1) rotate(0) translate(21.6 886.6)">
<title>UseCase</title>
<polygon fill="white" stroke="none" points="-21.6,21.6 -21.6,-886.6 591.14,-886.6 591.14,21.6 -21.6,21.6"/>
<g id="clust1" class="cluster">
<title>cluster_sys</title>
<path fill="#f7fbff" stroke="#1f4e79" stroke-width="1.6" d="M197.8,-8C197.8,-8 557.54,-8 557.54,-8 563.54,-8 569.54,-14 569.54,-20 569.54,-20 569.54,-845 569.54,-845 569.54,-851 563.54,-857 557.54,-857 557.54,-857 197.8,-857 197.8,-857 191.8,-857 185.8,-851 185.8,-845 185.8,-845 185.8,-20 185.8,-20 185.8,-14 191.8,-8 197.8,-8"/>
<text xml:space="preserve" text-anchor="middle" x="377.67" y="-841.3" font-family="Arial" font-size="13.00" fill="#1f4e79">QR Davomat va Ish Haqi Tizimi &#160;/ &#160;Attendance &amp; Payroll System</text>
</g>
<!-- emp -->
<g id="node1" class="node">
<title>emp</title>
<path fill="#fce8d5" stroke="#b45309" stroke-width="1.4" d="M88.8,-729.2C88.8,-729.2 12,-729.2 12,-729.2 6,-729.2 0,-723.2 0,-717.2 0,-717.2 0,-690.8 0,-690.8 0,-684.8 6,-678.8 12,-678.8 12,-678.8 88.8,-678.8 88.8,-678.8 94.8,-678.8 100.8,-684.8 100.8,-690.8 100.8,-690.8 100.8,-717.2 100.8,-717.2 100.8,-723.2 94.8,-729.2 88.8,-729.2"/>
<text xml:space="preserve" text-anchor="middle" x="50.4" y="-707" font-family="Arial" font-size="10.00">Xodim</text>
<text xml:space="preserve" text-anchor="middle" x="50.4" y="-695" font-family="Arial" font-size="10.00">(Employee)</text>
</g>
<!-- u1 -->
<g id="node8" class="node">
<title>u1</title>
<ellipse fill="#eaf1f8" stroke="#2e75b6" stroke-width="1.2" cx="377.17" cy="-799" rx="73.79" ry="18"/>
<text xml:space="preserve" text-anchor="middle" x="377.17" y="-796" font-family="Arial" font-size="10.00">QR check&#45;in / check&#45;out</text>
</g>
<!-- emp&#45;&gt;u1 -->
<g id="edge1" class="edge">
<title>emp&#45;&gt;u1</title>
<path fill="none" stroke="#5b7fa6" d="M93.46,-729.79C119.22,-744.43 153.37,-761.8 185.8,-772 224.33,-784.12 268.97,-790.81 305.33,-794.5"/>
</g>
<!-- u2 -->
<g id="node9" class="node">
<title>u2</title>
<ellipse fill="#eaf1f8" stroke="#2e75b6" stroke-width="1.2" cx="377.17" cy="-551" rx="68.4" ry="22.63"/>
<text xml:space="preserve" text-anchor="middle" x="377.17" y="-554" font-family="Arial" font-size="10.00">Davomatni ko&#39;rish</text>
<text xml:space="preserve" text-anchor="middle" x="377.17" y="-542" font-family="Arial" font-size="10.00">View attendance</text>
</g>
<!-- emp&#45;&gt;u2 -->
<g id="edge2" class="edge">
<title>emp&#45;&gt;u2</title>
<path fill="none" stroke="#5b7fa6" d="M71.65,-678.3C95.64,-649.81 138.4,-604.86 185.8,-582 223.96,-563.6 270.89,-555.82 308.6,-552.65"/>
</g>
<!-- u3 -->
<g id="node10" class="node">
<title>u3</title>
<ellipse fill="#eaf1f8" stroke="#2e75b6" stroke-width="1.2" cx="377.17" cy="-740" rx="68.4" ry="22.63"/>
<text xml:space="preserve" text-anchor="middle" x="377.17" y="-743" font-family="Arial" font-size="10.00">Payslip olish</text>
<text xml:space="preserve" text-anchor="middle" x="377.17" y="-731" font-family="Arial" font-size="10.00">View payslip</text>
</g>
<!-- emp&#45;&gt;u3 -->
<g id="edge3" class="edge">
<title>emp&#45;&gt;u3</title>
<path fill="none" stroke="#5b7fa6" d="M101.43,-709.55C157.93,-715.81 250,-726.01 311.81,-732.87"/>
</g>
<!-- u4 -->
<g id="node11" class="node">
<title>u4</title>
<ellipse fill="#eaf1f8" stroke="#2e75b6" stroke-width="1.2" cx="377.17" cy="-677" rx="68.4" ry="22.63"/>
<text xml:space="preserve" text-anchor="middle" x="377.17" y="-680" font-family="Arial" font-size="10.00">Ta&#39;til so&#39;rovi</text>
<text xml:space="preserve" text-anchor="middle" x="377.17" y="-668" font-family="Arial" font-size="10.00">Leave request</text>
</g>
<!-- emp&#45;&gt;u4 -->
<g id="edge4" class="edge">
<title>emp&#45;&gt;u4</title>
<path fill="none" stroke="#5b7fa6" d="M101.43,-699.84C157.48,-695.18 248.56,-687.61 310.34,-682.47"/>
</g>
<!-- term -->
<g id="node2" class="node">
<title>term</title>
<path fill="#fce8d5" stroke="#b45309" stroke-width="1.4" d="M88.8,-824.2C88.8,-824.2 12,-824.2 12,-824.2 6,-824.2 0,-818.2 0,-812.2 0,-812.2 0,-785.8 0,-785.8 0,-779.8 6,-773.8 12,-773.8 12,-773.8 88.8,-773.8 88.8,-773.8 94.8,-773.8 100.8,-779.8 100.8,-785.8 100.8,-785.8 100.8,-812.2 100.8,-812.2 100.8,-818.2 94.8,-824.2 88.8,-824.2"/>
<text xml:space="preserve" text-anchor="middle" x="50.4" y="-802" font-family="Arial" font-size="10.00">Terminal</text>
<text xml:space="preserve" text-anchor="middle" x="50.4" y="-790" font-family="Arial" font-size="10.00">(Kiosk)</text>
</g>
<!-- term&#45;&gt;u1 -->
<g id="edge5" class="edge">
<title>term&#45;&gt;u1</title>
<path fill="none" stroke="#5b7fa6" d="M101.43,-799C155.26,-799 241.38,-799 302.85,-799"/>
</g>
<!-- hr -->
<g id="node3" class="node">
<title>hr</title>
<path fill="#fce8d5" stroke="#b45309" stroke-width="1.4" d="M88.8,-513.2C88.8,-513.2 12,-513.2 12,-513.2 6,-513.2 0,-507.2 0,-501.2 0,-501.2 0,-474.8 0,-474.8 0,-468.8 6,-462.8 12,-462.8 12,-462.8 88.8,-462.8 88.8,-462.8 94.8,-462.8 100.8,-468.8 100.8,-474.8 100.8,-474.8 100.8,-501.2 100.8,-501.2 100.8,-507.2 94.8,-513.2 88.8,-513.2"/>
<text xml:space="preserve" text-anchor="middle" x="50.4" y="-491" font-family="Arial" font-size="10.00">HR menejer</text>
<text xml:space="preserve" text-anchor="middle" x="50.4" y="-479" font-family="Arial" font-size="10.00">(HR Manager)</text>
</g>
<!-- hr&#45;&gt;u4 -->
<g id="edge9" class="edge">
<title>hr&#45;&gt;u4</title>
<path fill="none" stroke="#5b7fa6" d="M65.33,-513.69C86.32,-549.7 129.66,-614.32 185.8,-646 222.98,-666.98 270.35,-674.75 308.53,-677.27"/>
</g>
<!-- u5 -->
<g id="node12" class="node">
<title>u5</title>
<ellipse fill="#eaf1f8" stroke="#2e75b6" stroke-width="1.2" cx="377.17" cy="-362" rx="81.28" ry="22.63"/>
<text xml:space="preserve" text-anchor="middle" x="377.17" y="-365" font-family="Arial" font-size="10.00">Xodimlarni boshqarish</text>
<text xml:space="preserve" text-anchor="middle" x="377.17" y="-353" font-family="Arial" font-size="10.00">Manage employees</text>
</g>
<!-- hr&#45;&gt;u5 -->
<g id="edge6" class="edge">
<title>hr&#45;&gt;u5</title>
<path fill="none" stroke="#5b7fa6" d="M79.51,-462.28C105.23,-440.25 145.34,-409.55 185.8,-393 220.82,-378.67 262.02,-370.95 297.11,-366.8"/>
</g>
<!-- u6 -->
<g id="node13" class="node">
<title>u6</title>
<ellipse fill="#eaf1f8" stroke="#2e75b6" stroke-width="1.2" cx="377.17" cy="-614" rx="70.27" ry="22.63"/>
<text xml:space="preserve" text-anchor="middle" x="377.17" y="-617" font-family="Arial" font-size="10.00">Smena boshqarish</text>
<text xml:space="preserve" text-anchor="middle" x="377.17" y="-605" font-family="Arial" font-size="10.00">Manage shifts</text>
</g>
<!-- hr&#45;&gt;u6 -->
<g id="edge7" class="edge">
<title>hr&#45;&gt;u6</title>
<path fill="none" stroke="#5b7fa6" d="M79.51,-513.72C105.23,-535.75 145.34,-566.45 185.8,-583 224.38,-598.79 270.47,-606.55 307.62,-610.36"/>
</g>
<!-- u7 -->
<g id="node14" class="node">
<title>u7</title>
<ellipse fill="#eaf1f8" stroke="#2e75b6" stroke-width="1.2" cx="377.17" cy="-488" rx="71.45" ry="22.63"/>
<text xml:space="preserve" text-anchor="middle" x="377.17" y="-491" font-family="Arial" font-size="10.00">Davomat tuzatish</text>
<text xml:space="preserve" text-anchor="middle" x="377.17" y="-479" font-family="Arial" font-size="10.00">Correct attendance</text>
</g>
<!-- hr&#45;&gt;u7 -->
<g id="edge8" class="edge">
<title>hr&#45;&gt;u7</title>
<path fill="none" stroke="#5b7fa6" d="M101.43,-488C155.97,-488 243.67,-488 305.28,-488"/>
</g>
<!-- u9 -->
<g id="node16" class="node">
<title>u9</title>
<ellipse fill="#eaf1f8" stroke="#2e75b6" stroke-width="1.2" cx="377.17" cy="-425" rx="68.4" ry="22.63"/>
<text xml:space="preserve" text-anchor="middle" x="377.17" y="-428" font-family="Arial" font-size="10.00">Bonus/jarima</text>
<text xml:space="preserve" text-anchor="middle" x="377.17" y="-416" font-family="Arial" font-size="10.00">Bonus / fine</text>
</g>
<!-- hr&#45;&gt;u9 -->
<g id="edge10" class="edge">
<title>hr&#45;&gt;u9</title>
<path fill="none" stroke="#5b7fa6" d="M101.31,-475.21C126.54,-468.97 157.69,-461.63 185.8,-456 228.32,-447.49 276.54,-439.65 313.8,-433.99"/>
</g>
<!-- acc -->
<g id="node4" class="node">
<title>acc</title>
<path fill="#fce8d5" stroke="#b45309" stroke-width="1.4" d="M88.8,-261.2C88.8,-261.2 12,-261.2 12,-261.2 6,-261.2 0,-255.2 0,-249.2 0,-249.2 0,-222.8 0,-222.8 0,-216.8 6,-210.8 12,-210.8 12,-210.8 88.8,-210.8 88.8,-210.8 94.8,-210.8 100.8,-216.8 100.8,-222.8 100.8,-222.8 100.8,-249.2 100.8,-249.2 100.8,-255.2 94.8,-261.2 88.8,-261.2"/>
<text xml:space="preserve" text-anchor="middle" x="50.4" y="-239" font-family="Arial" font-size="10.00">Buxgalter</text>
<text xml:space="preserve" text-anchor="middle" x="50.4" y="-227" font-family="Arial" font-size="10.00">(Accountant)</text>
</g>
<!-- u8 -->
<g id="node15" class="node">
<title>u8</title>
<ellipse fill="#eaf1f8" stroke="#2e75b6" stroke-width="1.2" cx="377.17" cy="-173" rx="73.42" ry="22.63"/>
<text xml:space="preserve" text-anchor="middle" x="377.17" y="-176" font-family="Arial" font-size="10.00">Ish haqini hisoblash</text>
<text xml:space="preserve" text-anchor="middle" x="377.17" y="-164" font-family="Arial" font-size="10.00">Compute payroll</text>
</g>
<!-- acc&#45;&gt;u8 -->
<g id="edge11" class="edge">
<title>acc&#45;&gt;u8</title>
<path fill="none" stroke="#5b7fa6" d="M101.31,-223.21C126.54,-216.97 157.69,-209.63 185.8,-204 226.84,-195.78 273.19,-188.2 309.88,-182.59"/>
</g>
<!-- acc&#45;&gt;u9 -->
<g id="edge12" class="edge">
<title>acc&#45;&gt;u9</title>
<path fill="none" stroke="#5b7fa6" d="M91.78,-261.88C94.95,-264.48 98.01,-267.2 100.8,-270 148,-317.29 129.39,-358.19 185.8,-394 222.13,-417.06 269.95,-424.78 308.58,-426.75"/>
</g>
<!-- u11 -->
<g id="node18" class="node">
<title>u11</title>
<ellipse fill="#eaf1f8" stroke="#2e75b6" stroke-width="1.2" cx="377.17" cy="-236" rx="69.87" ry="22.63"/>
<text xml:space="preserve" text-anchor="middle" x="377.17" y="-239" font-family="Arial" font-size="10.00">Hisobot va eksport</text>
<text xml:space="preserve" text-anchor="middle" x="377.17" y="-227" font-family="Arial" font-size="10.00">Reports &amp; export</text>
</g>
<!-- acc&#45;&gt;u11 -->
<g id="edge13" class="edge">
<title>acc&#45;&gt;u11</title>
<path fill="none" stroke="#5b7fa6" d="M101.43,-236C156.41,-236 245.1,-236 306.78,-236"/>
</g>
<!-- mgr -->
<g id="node5" class="node">
<title>mgr</title>
<path fill="#fce8d5" stroke="#b45309" stroke-width="1.4" d="M88.8,-329.2C88.8,-329.2 12,-329.2 12,-329.2 6,-329.2 0,-323.2 0,-317.2 0,-317.2 0,-290.8 0,-290.8 0,-284.8 6,-278.8 12,-278.8 12,-278.8 88.8,-278.8 88.8,-278.8 94.8,-278.8 100.8,-284.8 100.8,-290.8 100.8,-290.8 100.8,-317.2 100.8,-317.2 100.8,-323.2 94.8,-329.2 88.8,-329.2"/>
<text xml:space="preserve" text-anchor="middle" x="50.4" y="-307" font-family="Arial" font-size="10.00">Bo&#39;lim rahbari</text>
<text xml:space="preserve" text-anchor="middle" x="50.4" y="-295" font-family="Arial" font-size="10.00">(Manager)</text>
</g>
<!-- mgr&#45;&gt;u2 -->
<g id="edge14" class="edge">
<title>mgr&#45;&gt;u2</title>
<path fill="none" stroke="#5b7fa6" d="M59.42,-329.66C75.34,-376.01 115.6,-473.22 185.8,-520 221.75,-543.95 269.8,-551.64 308.64,-553.37"/>
</g>
<!-- u10 -->
<g id="node17" class="node">
<title>u10</title>
<ellipse fill="#eaf1f8" stroke="#2e75b6" stroke-width="1.2" cx="377.17" cy="-299" rx="70.44" ry="22.63"/>
<text xml:space="preserve" text-anchor="middle" x="377.17" y="-302" font-family="Arial" font-size="10.00">So&#39;rovni tasdiqlash</text>
<text xml:space="preserve" text-anchor="middle" x="377.17" y="-290" font-family="Arial" font-size="10.00">Approve request</text>
</g>
<!-- mgr&#45;&gt;u10 -->
<g id="edge15" class="edge">
<title>mgr&#45;&gt;u10</title>
<path fill="none" stroke="#5b7fa6" d="M101.43,-303.23C156.33,-302.38 244.81,-301.02 306.48,-300.07"/>
</g>
<!-- mgr&#45;&gt;u11 -->
<g id="edge16" class="edge">
<title>mgr&#45;&gt;u11</title>
<path fill="none" stroke="#5b7fa6" d="M101.19,-288.92C126.38,-281.64 157.55,-273.17 185.8,-267 227.51,-257.89 274.9,-250.16 311.95,-244.7"/>
</g>
<!-- adm -->
<g id="node6" class="node">
<title>adm</title>
<path fill="#fce8d5" stroke="#b45309" stroke-width="1.4" d="M88.8,-193.2C88.8,-193.2 12,-193.2 12,-193.2 6,-193.2 0,-187.2 0,-181.2 0,-181.2 0,-154.8 0,-154.8 0,-148.8 6,-142.8 12,-142.8 12,-142.8 88.8,-142.8 88.8,-142.8 94.8,-142.8 100.8,-148.8 100.8,-154.8 100.8,-154.8 100.8,-181.2 100.8,-181.2 100.8,-187.2 94.8,-193.2 88.8,-193.2"/>
<text xml:space="preserve" text-anchor="middle" x="50.4" y="-165" font-family="Arial" font-size="10.00">Administrator</text>
</g>
<!-- adm&#45;&gt;u5 -->
<g id="edge19" class="edge">
<title>adm&#45;&gt;u5</title>
<path fill="none" stroke="#5b7fa6" d="M91.83,-193.83C95,-196.44 98.03,-199.17 100.8,-202 148.86,-251.04 128.17,-293.67 185.8,-331 217.98,-351.84 259.46,-360.24 295.48,-363.16"/>
</g>
<!-- adm&#45;&gt;u11 -->
<g id="edge18" class="edge">
<title>adm&#45;&gt;u11</title>
<path fill="none" stroke="#5b7fa6" d="M101.19,-183.08C126.38,-190.36 157.55,-198.83 185.8,-205 227.51,-214.11 274.9,-221.84 311.95,-227.3"/>
</g>
<!-- u12 -->
<g id="node19" class="node">
<title>u12</title>
<ellipse fill="#eaf1f8" stroke="#2e75b6" stroke-width="1.2" cx="377.17" cy="-110" rx="84.41" ry="22.63"/>
<text xml:space="preserve" text-anchor="middle" x="377.17" y="-113" font-family="Arial" font-size="10.00">Konfiguratsiya &amp; RBAC</text>
<text xml:space="preserve" text-anchor="middle" x="377.17" y="-101" font-family="Arial" font-size="10.00">Config &amp; roles</text>
</g>
<!-- adm&#45;&gt;u12 -->
<g id="edge17" class="edge">
<title>adm&#45;&gt;u12</title>
<path fill="none" stroke="#5b7fa6" d="M101.42,-157.5C126.67,-152.31 157.82,-146.09 185.8,-141 224.51,-133.96 267.79,-126.85 303.29,-121.22"/>
</g>
<!-- sched -->
<g id="node7" class="node">
<title>sched</title>
<path fill="#fce8d5" stroke="#b45309" stroke-width="1.4" d="M88.8,-72.2C88.8,-72.2 12,-72.2 12,-72.2 6,-72.2 0,-66.2 0,-60.2 0,-60.2 0,-33.8 0,-33.8 0,-27.8 6,-21.8 12,-21.8 12,-21.8 88.8,-21.8 88.8,-21.8 94.8,-21.8 100.8,-27.8 100.8,-33.8 100.8,-33.8 100.8,-60.2 100.8,-60.2 100.8,-66.2 94.8,-72.2 88.8,-72.2"/>
<text xml:space="preserve" text-anchor="middle" x="50.4" y="-50" font-family="Arial" font-size="10.00">Scheduler</text>
<text xml:space="preserve" text-anchor="middle" x="50.4" y="-38" font-family="Arial" font-size="10.00">(System)</text>
</g>
<!-- u13 -->
<g id="node20" class="node">
<title>u13</title>
<ellipse fill="#eaf1f8" stroke="#2e75b6" stroke-width="1.2" cx="377.17" cy="-47" rx="88.74" ry="22.63"/>
<text xml:space="preserve" text-anchor="middle" x="377.17" y="-50" font-family="Arial" font-size="10.00">Avto check&#45;out / eslatma</text>
<text xml:space="preserve" text-anchor="middle" x="377.17" y="-38" font-family="Arial" font-size="10.00">Auto close / reminders</text>
</g>
<!-- sched&#45;&gt;u13 -->
<g id="edge20" class="edge">
<title>sched&#45;&gt;u13</title>
<path fill="none" stroke="#5b7fa6" d="M101.43,-47C151.08,-47 228.2,-47 288.11,-47"/>
</g>
</g>
</svg>
